<svg width="318" height="63" viewBox="0 0 318 63" fill="none" xmlns="http://www.w3.org/2000/svg">
    <path d="M76.8126 31.5C76.8126 32.6667 76.1563 33.25 74.8438 33.25H67.2188V59.7812C67.2188 60.4479 67.0313 60.9896 66.6563 61.4062C66.2813 61.8021 65.7605 62 65.0938 62H62.0313C61.3021 62 60.7396 61.8021 60.3438 61.4062C59.948 60.9896 59.7501 60.4479 59.7501 59.7812V33.25H55.3438C54.0313 33.25 53.3751 32.6562 53.3751 31.4688V29.7188C53.3751 29.2396 53.5001 28.8854 53.7501 28.6562C54.0209 28.4062 54.5105 28.1771 55.2188 27.9688L59.8751 27.2188C58.8126 24.4271 58.1876 22.3646 58.0001 21.0312C57.8334 19.6771 57.7501 18.3958 57.7501 17.1875C57.7501 15.9583 58.0209 14.6771 58.5626 13.3438C59.1042 12.0104 59.8959 10.8333 60.9376 9.8125C63.2709 7.52083 66.3751 6.375 70.2501 6.375C73.3126 6.375 75.948 7.03125 78.1563 8.34375C79.3855 9.09375 80.0001 9.77083 80.0001 10.375C80.0001 10.9583 79.8126 11.5104 79.4376 12.0312L77.9376 14.1562C77.5209 14.7188 77.1251 15 76.7501 15C76.3959 15 76.0521 14.8958 75.7188 14.6875C75.3855 14.4792 74.9896 14.25 74.5313 14C73.3021 13.3333 71.8855 13 70.2813 13C66.7605 13 65.0001 15.2188 65.0001 19.6562C65.0001 21.8021 65.4792 24.1667 66.4376 26.75H74.8438C76.1563 26.75 76.8126 27.3229 76.8126 28.4688V31.5ZM102.469 31.5C102.469 32.6667 101.813 33.25 100.5 33.25H91.6876V52.875C91.6876 55 92.7396 56.0625 94.8438 56.0625C96.1771 56.0625 97.9167 55.3958 100.063 54.0625C100.479 53.7917 100.927 53.6562 101.406 53.6562C101.906 53.6562 102.302 54 102.594 54.6875L103.313 56.3125C103.583 56.9375 103.719 57.4688 103.719 57.9062C103.719 58.3438 103.385 58.8542 102.719 59.4375C102.073 60 101.24 60.5104 100.219 60.9688C97.9063 62.0104 95.8126 62.5312 93.9376 62.5312C92.0626 62.5312 90.573 62.3438 89.4688 61.9688C88.3855 61.5729 87.4584 60.9896 86.6876 60.2188C85.0209 58.5938 84.1876 56.25 84.1876 53.1875V33.25H81.5626C80.2501 33.25 79.5938 32.6562 79.5938 31.4688V29.6875C79.5938 29.2083 79.7188 28.8333 79.9688 28.5625C80.2188 28.2917 80.7084 28.0833 81.4376 27.9375L84.5626 27.0312L85.7501 19.6875C85.9792 18.3125 86.5417 17.625 87.4376 17.625H90.0313C90.5105 17.625 90.9063 17.8229 91.2188 18.2188C91.5313 18.5938 91.6876 19.0833 91.6876 19.6875V26.75H100.5C101.813 26.75 102.469 27.3229 102.469 28.4688V31.5ZM115.25 46.0938L115.219 46.6875C115.219 49.5417 116.125 51.8333 117.938 53.5625C119.833 55.3958 122.406 56.3125 125.656 56.3125C128.615 56.3125 131.365 55.4271 133.906 53.6562C134.385 53.3229 134.813 53.1562 135.188 53.1562C135.958 53.1562 136.542 53.5417 136.938 54.3125L137.781 56.0625C137.969 56.4792 138.063 56.9271 138.063 57.4062C138.063 57.8854 137.844 58.3854 137.406 58.9062C136.99 59.4062 136.438 59.8646 135.75 60.2812C135.063 60.6979 134.26 61.0625 133.344 61.375C132.448 61.6875 131.521 61.9479 130.563 62.1562C128.646 62.5729 126.646 62.7812 124.563 62.7812C122.479 62.7812 120.375 62.3854 118.25 61.5938C116.146 60.8021 114.323 59.6458 112.781 58.125C109.469 54.8958 107.813 50.5312 107.813 45.0312C107.813 35.3854 111.208 29.3854 118 27.0312C120.125 26.3021 122.302 25.9375 124.531 25.9375C126.781 25.9375 128.688 26.1771 130.25 26.6562C131.833 27.1354 133.198 27.8438 134.344 28.7812C136.76 30.7604 137.969 33.5208 137.969 37.0625C137.969 40.5417 136.552 43.1979 133.719 45.0312C131.24 46.6354 127.969 47.4375 123.906 47.4375C121.406 47.4375 118.521 46.9896 115.25 46.0938ZM130.625 36.9688C130.625 33.9896 128.625 32.5 124.625 32.5C120.813 32.5 118.146 33.8958 116.625 36.6875C116.083 37.6667 115.729 38.875 115.563 40.3125C117.354 41.2083 119.635 41.6562 122.406 41.6562C127.885 41.6562 130.625 40.0938 130.625 36.9688ZM146.594 29C146.594 27.5 147.25 26.75 148.563 26.75H150.25C151.396 26.75 152.208 27.25 152.688 28.25C153.375 29.7083 153.875 31.7188 154.188 34.2812C154.188 34.3229 154.198 34.3438 154.219 34.3438C154.26 34.3438 154.333 33.9896 154.438 33.2812C154.542 32.5729 154.844 31.7083 155.344 30.6875C155.844 29.6458 156.458 28.7708 157.188 28.0625C158.667 26.6667 160.479 25.9688 162.625 25.9688C165.021 25.9688 166.688 26.3646 167.625 27.1562C168.063 27.5104 168.24 28 168.156 28.625L167.656 32.5625C167.531 33.625 166.99 34.1562 166.031 34.1562C165.573 34.1562 165.01 34.0625 164.344 33.875C163.052 33.5417 162.031 33.375 161.281 33.375C160.531 33.375 159.74 33.7083 158.906 34.375C158.073 35.0208 157.354 35.8333 156.75 36.8125C155.521 38.8542 154.906 41.0312 154.906 43.3438V59.9375C154.906 60.5208 154.74 61.0104 154.406 61.4062C154.073 61.8021 153.594 62 152.969 62H149.344C148.677 62 148.167 61.8021 147.813 61.4062C147.479 61.0104 147.313 60.5208 147.313 59.9375V38.4062C147.313 34.7396 147.188 32.3229 146.938 31.1562C146.708 29.9688 146.594 29.25 146.594 29ZM194.125 31.5C194.125 32.6667 193.469 33.25 192.156 33.25H184.531V59.7812C184.531 60.4479 184.344 60.9896 183.969 61.4062C183.594 61.8021 183.073 62 182.406 62H179.344C178.615 62 178.052 61.8021 177.656 61.4062C177.26 60.9896 177.063 60.4479 177.063 59.7812V33.25H172.656C171.344 33.25 170.688 32.6562 170.688 31.4688V29.7188C170.688 29.2396 170.813 28.8854 171.063 28.6562C171.333 28.4062 171.823 28.1771 172.531 27.9688L177.188 27.2188C176.125 24.4271 175.5 22.3646 175.313 21.0312C175.146 19.6771 175.063 18.3958 175.063 17.1875C175.063 15.9583 175.333 14.6771 175.875 13.3438C176.417 12.0104 177.208 10.8333 178.25 9.8125C180.583 7.52083 183.688 6.375 187.563 6.375C190.625 6.375 193.26 7.03125 195.469 8.34375C196.698 9.09375 197.313 9.77083 197.313 10.375C197.313 10.9583 197.125 11.5104 196.75 12.0312L195.25 14.1562C194.833 14.7188 194.438 15 194.063 15C193.708 15 193.365 14.8958 193.031 14.6875C192.698 14.4792 192.302 14.25 191.844 14C190.615 13.3333 189.198 13 187.594 13C184.073 13 182.313 15.2188 182.313 19.6562C182.313 21.8021 182.792 24.1667 183.75 26.75H192.156C193.469 26.75 194.125 27.3229 194.125 28.4688V31.5ZM208.313 53.4062C208.313 54.8854 208.833 55.625 209.875 55.625C210.208 55.625 210.635 55.5312 211.156 55.3438C212.115 54.9896 212.698 54.8125 212.906 54.8125C213.385 54.8125 213.76 55.1146 214.031 55.7188L215 57.9375C215.125 58.25 215.188 58.5417 215.188 58.8125C215.188 59.2917 214.792 59.875 214 60.5625C212.417 61.875 210.344 62.5312 207.781 62.5312C203.115 62.5312 200.781 59.4167 200.781 53.1875V8.625C200.781 8.0625 200.948 7.58333 201.281 7.1875C201.615 6.79167 202.01 6.59375 202.469 6.59375H206.656C207.135 6.59375 207.531 6.79167 207.844 7.1875C208.156 7.58333 208.313 8.0625 208.313 8.625V53.4062ZM220.063 44.25C220.063 41.5417 220.51 39.0625 221.406 36.8125C222.323 34.5417 223.573 32.6042 225.156 31C228.469 27.6458 232.646 25.9688 237.688 25.9688C243.333 25.9688 247.708 27.6458 250.813 31C253.813 34.2292 255.313 38.6667 255.313 44.3125C255.313 49.7708 253.615 54.2292 250.219 57.6875C246.906 61.0833 242.729 62.7812 237.688 62.7812C232.375 62.7812 228.104 61.0417 224.875 57.5625C221.667 54.1667 220.063 49.7292 220.063 44.25ZM230.094 36.3125C229.323 37.4583 228.76 38.7708 228.406 40.25C228.052 41.7083 227.875 43.1979 227.875 44.7188C227.875 46.2188 228.073 47.6667 228.469 49.0625C228.885 50.4375 229.5 51.6667 230.313 52.75C232.104 55.125 234.604 56.3125 237.813 56.3125C241.083 56.3125 243.563 55.1458 245.25 52.8125C246.75 50.7708 247.5 47.9896 247.5 44.4688C247.5 39.1979 245.771 35.5625 242.313 33.5625C241.042 32.8333 239.5 32.4688 237.688 32.4688C235.896 32.4688 234.375 32.8229 233.125 33.5312C231.896 34.2188 230.885 35.1458 230.094 36.3125ZM312 26.75C313.354 26.75 314.031 27.375 314.031 28.625C313.99 33.6458 312.969 39.5729 310.969 46.4062C309.406 51.7604 307.396 56.0208 304.938 59.1875C303.292 61.3125 301.49 62.375 299.531 62.375C297.594 62.375 296.104 61.9062 295.063 60.9688C294.021 60.0312 293.292 58.6667 292.875 56.875C291.75 52.1875 290.958 48.9896 290.5 47.2812L289.313 42.9375C288.979 41.75 288.719 40.8542 288.531 40.25C288.49 40.4375 288.427 40.7188 288.344 41.0938C288.281 41.4688 288.198 41.875 288.094 42.3125L287.438 45.0312C286.208 49.4479 285.25 52.4167 284.563 53.9375C283.896 55.4583 283.323 56.6458 282.844 57.5C282.365 58.3333 281.802 59.1146 281.156 59.8438C279.656 61.5312 278.01 62.375 276.219 62.375C272.469 62.375 270.135 60.3854 269.219 56.4062C268.156 51.9271 266.958 47.4896 265.625 43.0938L261.469 29.9062C261.323 29.4896 261.25 29.0729 261.25 28.6562C261.25 27.3854 261.958 26.75 263.375 26.75H267.063C268.313 26.75 269.167 27.5312 269.625 29.0938C270.854 33.3646 271.917 37.5625 272.813 41.6875L275.5 54C275.688 54.7708 275.979 55.1562 276.375 55.1562C276.813 55.1562 277.229 54.75 277.625 53.9375C278.042 53.125 278.479 52.1354 278.938 50.9688C279.417 49.7812 279.875 48.5208 280.313 47.1875C280.75 45.8333 281.177 44.4375 281.594 43C282.01 41.5417 282.396 40.0833 282.75 38.625C283.458 35.7292 284.031 33.0208 284.469 30.5L284.688 29.1875C284.938 27.9375 286.031 27.3125 287.969 27.3125C289.24 27.3125 290.083 27.3958 290.5 27.5625C291.292 27.9167 291.948 28.7917 292.469 30.1875C292.99 31.5625 293.552 33.2604 294.156 35.2812C294.76 37.3021 295.344 39.3854 295.906 41.5312C297.302 47.0521 298.333 51.3021 299 54.2812C299.146 54.8854 299.365 55.1875 299.656 55.1875C300.052 55.1875 300.552 54.6458 301.156 53.5625C301.76 52.4583 302.385 50.9375 303.031 49C303.677 47.0625 304.24 44.9792 304.719 42.75C305.698 38.25 306.25 33.6042 306.375 28.8125C306.375 27.75 306.833 27.0938 307.75 26.8438C307.979 26.7812 308.198 26.75 308.406 26.75H312Z" fill="#4B6078"/>
    <path d="M50 60.5C37.4874 73 41.3949 25.5 24.7398 25.5C8.0847 25.5 11.9874 71.5 0 60.5C0 38.7202 8.0847 9 24.7398 9C41.3949 9 50 38.7202 50 60.5Z" fill="#4B6078"/>
    <path d="M31.6034 43.1975C31.6034 47.041 28.4877 50.1567 24.6442 50.1567C20.8007 50.1567 17.6849 47.041 17.6849 43.1975C17.6849 39.354 20.8007 36.2383 24.6442 36.2383C28.4877 36.2383 31.6034 39.354 31.6034 43.1975Z" fill="#4B6078"/>
</svg>